STARTFONT 2.1
FONT -FontForge-Toronto_23-Regular-R-Normal--23-230-72-72-P-118-MacRoman-0
SIZE 23 72 72
FONTBOUNDINGBOX 22 23 0 -5
COMMENT "Generated by fontforge, http://fontforge.sourceforge.net"
STARTPROPERTIES 32
FOUNDRY "FontForge"
FAMILY_NAME "Toronto_23"
WEIGHT_NAME "Regular"
SLANT "R"
SETWIDTH_NAME "Normal"
ADD_STYLE_NAME ""
PIXEL_SIZE 23
POINT_SIZE 230
RESOLUTION_X 72
RESOLUTION_Y 72
SPACING "P"
AVERAGE_WIDTH 118
CHARSET_REGISTRY "MacRoman"
CHARSET_ENCODING "0"
FONTNAME_REGISTRY ""
CHARSET_COLLECTIONS "MacRoman"
FONT_NAME "Toronto_23"
FACE_NAME "Toronto_23"
COPYRIGHT ""
FONT_VERSION "001.000"
FONT_ASCENT 18
FONT_DESCENT 5
UNDERLINE_POSITION -2
UNDERLINE_THICKNESS 2
X_HEIGHT 9
CAP_HEIGHT 13
RAW_ASCENT 800
RAW_DESCENT 200
NORM_SPACE 6
FIGURE_WIDTH 12
AVG_LOWERCASE_WIDTH 250
AVG_UPPERCASE_WIDTH 206
ENDPROPERTIES
CHARS 175
STARTCHAR uni0000
ENCODING 0
SWIDTH 0 0
DWIDTH 0 0
BBX 1 1 0 0
BITMAP
00
ENDCHAR
STARTCHAR uni0002
ENCODING 2
SWIDTH 0 0
DWIDTH 0 0
BBX 1 1 0 0
BITMAP
00
ENDCHAR
STARTCHAR uni0004
ENCODING 4
SWIDTH 0 0
DWIDTH 0 0
BBX 1 1 0 0
BITMAP
00
ENDCHAR
STARTCHAR uni000A
ENCODING 10
SWIDTH 0 0
DWIDTH 0 0
BBX 1 1 0 0
BITMAP
00
ENDCHAR
STARTCHAR uni000B
ENCODING 11
SWIDTH 0 0
DWIDTH 0 0
BBX 1 1 0 0
BITMAP
00
ENDCHAR
STARTCHAR uni000C
ENCODING 12
SWIDTH 0 0
DWIDTH 0 0
BBX 1 1 0 0
BITMAP
00
ENDCHAR
STARTCHAR uni000D
ENCODING 13
SWIDTH 0 0
DWIDTH 0 0
BBX 1 1 0 0
BITMAP
00
ENDCHAR
STARTCHAR uni001F
ENCODING 31
SWIDTH 0 0
DWIDTH 0 0
BBX 1 1 0 0
BITMAP
00
ENDCHAR
STARTCHAR space
ENCODING 32
SWIDTH 260 0
DWIDTH 6 0
BBX 1 1 6 -5
BITMAP
00
ENDCHAR
STARTCHAR exclam
ENCODING 33
SWIDTH 260 0
DWIDTH 6 0
BBX 1 14 3 0
BITMAP
80
80
80
80
80
80
80
80
80
80
00
00
80
80
ENDCHAR
STARTCHAR quotedbl
ENCODING 34
SWIDTH 434 0
DWIDTH 10 0
BBX 4 4 3 10
BITMAP
90
90
90
90
ENDCHAR
STARTCHAR numbersign
ENCODING 35
SWIDTH 521 0
DWIDTH 12 0
BBX 11 9 0 5
BITMAP
0880
0880
7FE0
1100
1100
1100
FFC0
2200
2200
ENDCHAR
STARTCHAR dollar
ENCODING 36
SWIDTH 521 0
DWIDTH 12 0
BBX 7 17 2 -2
BITMAP
10
10
38
54
92
90
50
30
18
14
12
92
92
54
38
10
10
ENDCHAR
STARTCHAR percent
ENCODING 37
SWIDTH 608 0
DWIDTH 14 0
BBX 10 14 2 0
BITMAP
6F80
9040
9040
9080
9100
6200
0400
0800
1180
2240
4240
8240
8240
8180
ENDCHAR
STARTCHAR ampersand
ENCODING 38
SWIDTH 652 0
DWIDTH 15 0
BBX 13 14 1 0
BITMAP
3800
4400
4400
4400
2800
1000
2800
4420
8220
8140
8080
8140
4220
3C18
ENDCHAR
STARTCHAR quotesingle
ENCODING 39
SWIDTH 260 0
DWIDTH 6 0
BBX 1 4 2 10
BITMAP
80
80
80
80
ENDCHAR
STARTCHAR parenleft
ENCODING 40
SWIDTH 347 0
DWIDTH 8 0
BBX 4 18 2 -2
BITMAP
10
20
40
40
80
80
80
80
80
80
80
80
80
80
40
40
20
10
ENDCHAR
STARTCHAR parenright
ENCODING 41
SWIDTH 347 0
DWIDTH 8 0
BBX 4 18 2 -2
BITMAP
80
40
20
20
10
10
10
10
10
10
10
10
10
10
20
20
40
80
ENDCHAR
STARTCHAR asterisk
ENCODING 42
SWIDTH 521 0
DWIDTH 12 0
BBX 7 7 2 7
BITMAP
10
92
54
38
54
92
10
ENDCHAR
STARTCHAR plus
ENCODING 43
SWIDTH 521 0
DWIDTH 12 0
BBX 9 9 1 3
BITMAP
0800
0800
0800
0800
FF80
0800
0800
0800
0800
ENDCHAR
STARTCHAR comma
ENCODING 44
SWIDTH 260 0
DWIDTH 6 0
BBX 2 4 3 -2
BITMAP
40
40
40
80
ENDCHAR
STARTCHAR hyphen
ENCODING 45
SWIDTH 521 0
DWIDTH 12 0
BBX 9 1 1 7
BITMAP
FF80
ENDCHAR
STARTCHAR period
ENCODING 46
SWIDTH 260 0
DWIDTH 6 0
BBX 1 2 3 0
BITMAP
80
80
ENDCHAR
STARTCHAR slash
ENCODING 47
SWIDTH 434 0
DWIDTH 10 0
BBX 7 14 2 0
BITMAP
02
02
04
04
08
08
10
10
20
20
40
40
80
80
ENDCHAR
STARTCHAR zero
ENCODING 48
SWIDTH 521 0
DWIDTH 12 0
BBX 10 14 1 0
BITMAP
1E00
2100
4080
4080
8040
8040
8040
8040
8040
8040
4080
4080
2100
1E00
ENDCHAR
STARTCHAR one
ENCODING 49
SWIDTH 521 0
DWIDTH 12 0
BBX 5 14 3 0
BITMAP
E0
20
20
20
20
20
20
20
20
20
20
20
20
F8
ENDCHAR
STARTCHAR two
ENCODING 50
SWIDTH 521 0
DWIDTH 12 0
BBX 9 14 1 0
BITMAP
3E00
4100
8080
8080
0080
0080
0100
0200
0400
0800
1000
2080
4080
FF80
ENDCHAR
STARTCHAR three
ENCODING 51
SWIDTH 521 0
DWIDTH 12 0
BBX 10 14 1 0
BITMAP
FFC0
8080
8100
0200
0400
0E00
0100
0080
0040
8040
8040
4080
2100
1E00
ENDCHAR
STARTCHAR four
ENCODING 52
SWIDTH 521 0
DWIDTH 12 0
BBX 10 14 1 0
BITMAP
0100
0300
0500
0900
1100
2100
4100
8100
FFC0
0100
0100
0100
0100
07C0
ENDCHAR
STARTCHAR five
ENCODING 53
SWIDTH 521 0
DWIDTH 12 0
BBX 10 14 1 0
BITMAP
FF80
8000
8000
8000
FE00
0100
0080
0040
0040
8040
8040
4080
2100
1E00
ENDCHAR
STARTCHAR six
ENCODING 54
SWIDTH 521 0
DWIDTH 12 0
BBX 10 14 1 0
BITMAP
1E00
2100
4080
8000
9E00
A100
C080
8040
8040
8040
8040
4080
2100
1E00
ENDCHAR
STARTCHAR seven
ENCODING 55
SWIDTH 521 0
DWIDTH 12 0
BBX 10 14 1 0
BITMAP
FFC0
8040
0080
0080
0100
0100
0200
0200
0400
0400
0400
0800
0800
0800
ENDCHAR
STARTCHAR eight
ENCODING 56
SWIDTH 521 0
DWIDTH 12 0
BBX 10 14 1 0
BITMAP
1E00
2100
4080
4080
2100
1E00
2100
4080
8040
8040
8040
4080
2100
1E00
ENDCHAR
STARTCHAR nine
ENCODING 57
SWIDTH 521 0
DWIDTH 12 0
BBX 10 14 1 0
BITMAP
1E00
2100
4080
8040
8040
8040
8040
40C0
2140
1E40
0040
4080
2100
1E00
ENDCHAR
STARTCHAR colon
ENCODING 58
SWIDTH 260 0
DWIDTH 6 0
BBX 1 10 3 0
BITMAP
80
80
00
00
00
00
00
00
80
80
ENDCHAR
STARTCHAR semicolon
ENCODING 59
SWIDTH 347 0
DWIDTH 8 0
BBX 2 12 3 -2
BITMAP
40
40
00
00
00
00
00
00
40
40
40
80
ENDCHAR
STARTCHAR less
ENCODING 60
SWIDTH 347 0
DWIDTH 8 0
BBX 5 9 1 2
BITMAP
08
10
20
40
80
40
20
10
08
ENDCHAR
STARTCHAR equal
ENCODING 61
SWIDTH 434 0
DWIDTH 10 0
BBX 8 5 1 4
BITMAP
FF
00
00
00
FF
ENDCHAR
STARTCHAR greater
ENCODING 62
SWIDTH 347 0
DWIDTH 8 0
BBX 5 9 1 2
BITMAP
80
40
20
10
08
10
20
40
80
ENDCHAR
STARTCHAR question
ENCODING 63
SWIDTH 608 0
DWIDTH 14 0
BBX 9 14 3 0
BITMAP
3E00
4100
8080
8080
0080
0100
0200
0400
0800
0800
0000
0000
0800
0800
ENDCHAR
STARTCHAR at
ENCODING 64
SWIDTH 782 0
DWIDTH 18 0
BBX 14 13 2 -1
BITMAP
0FC0
3030
4008
4388
8444
8844
8844
8844
88C8
4730
4000
3000
0F80
ENDCHAR
STARTCHAR A
ENCODING 65
SWIDTH 695 0
DWIDTH 16 0
BBX 15 14 0 0
BITMAP
0100
0100
0280
0280
0440
0440
0820
0820
1FF0
1010
1010
2008
2008
F83E
ENDCHAR
STARTCHAR B
ENCODING 66
SWIDTH 608 0
DWIDTH 14 0
BBX 12 14 1 0
BITMAP
FF80
2040
2020
2020
2020
2040
3FC0
2020
2010
2010
2010
2010
2020
FFC0
ENDCHAR
STARTCHAR C
ENCODING 67
SWIDTH 608 0
DWIDTH 14 0
BBX 11 14 1 0
BITMAP
0F00
30C0
4020
4000
8000
8000
8000
8000
8000
8000
4000
4020
30C0
0F00
ENDCHAR
STARTCHAR D
ENCODING 68
SWIDTH 608 0
DWIDTH 14 0
BBX 12 14 1 0
BITMAP
FF00
20C0
2020
2020
2010
2010
2010
2010
2010
2010
2020
2020
20C0
FF00
ENDCHAR
STARTCHAR E
ENCODING 69
SWIDTH 521 0
DWIDTH 12 0
BBX 10 14 1 0
BITMAP
FFC0
2040
2040
2000
2000
2200
3E00
2200
2000
2000
2000
2040
2040
FFC0
ENDCHAR
STARTCHAR F
ENCODING 70
SWIDTH 521 0
DWIDTH 12 0
BBX 10 14 1 0
BITMAP
FFC0
2040
2040
2000
2000
2100
3F00
2100
2000
2000
2000
2000
2000
F800
ENDCHAR
STARTCHAR G
ENCODING 71
SWIDTH 608 0
DWIDTH 14 0
BBX 12 14 1 0
BITMAP
0F00
30C0
4020
4000
8000
8000
83F0
8010
8010
8010
4010
4030
30D0
0F10
ENDCHAR
STARTCHAR H
ENCODING 72
SWIDTH 695 0
DWIDTH 16 0
BBX 14 14 1 0
BITMAP
F87C
2010
2010
2010
2010
2010
3FF0
2010
2010
2010
2010
2010
2010
F87C
ENDCHAR
STARTCHAR I
ENCODING 73
SWIDTH 347 0
DWIDTH 8 0
BBX 5 14 1 0
BITMAP
F8
20
20
20
20
20
20
20
20
20
20
20
20
F8
ENDCHAR
STARTCHAR J
ENCODING 74
SWIDTH 608 0
DWIDTH 14 0
BBX 12 14 1 0
BITMAP
01F0
0040
0040
0040
0040
0040
0040
0040
8040
8040
8040
4080
2100
1E00
ENDCHAR
STARTCHAR K
ENCODING 75
SWIDTH 695 0
DWIDTH 16 0
BBX 13 14 1 0
BITMAP
F9F8
2040
2080
2100
2200
2400
2800
3400
2200
2100
2080
2040
2020
F8F8
ENDCHAR
STARTCHAR L
ENCODING 76
SWIDTH 521 0
DWIDTH 12 0
BBX 10 14 1 0
BITMAP
F800
2000
2000
2000
2000
2000
2000
2000
2000
2000
2000
2040
2040
FFC0
ENDCHAR
STARTCHAR M
ENCODING 77
SWIDTH 1043 0
DWIDTH 24 0
BBX 21 14 1 0
BITMAP
E70700
288880
305040
202020
202020
202020
202020
202020
202020
202020
202020
202020
202020
F8F8F8
ENDCHAR
STARTCHAR N
ENCODING 78
SWIDTH 695 0
DWIDTH 16 0
BBX 15 14 1 0
BITMAP
E7C0
2820
3010
2008
2008
2008
2008
2008
2008
2008
2008
2008
2008
F83E
ENDCHAR
STARTCHAR O
ENCODING 79
SWIDTH 608 0
DWIDTH 14 0
BBX 12 14 1 0
BITMAP
0F00
30C0
4020
4020
8010
8010
8010
8010
8010
8010
4020
4020
30C0
0F00
ENDCHAR
STARTCHAR P
ENCODING 80
SWIDTH 608 0
DWIDTH 14 0
BBX 11 14 1 0
BITMAP
FF80
2040
2020
2020
2020
2020
2020
2040
3F80
2000
2000
2000
2000
F800
ENDCHAR
STARTCHAR Q
ENCODING 81
SWIDTH 608 0
DWIDTH 14 0
BBX 13 14 1 0
BITMAP
0F00
30C0
4020
4020
8010
8010
8010
8010
8010
8090
4060
4020
30D0
0F08
ENDCHAR
STARTCHAR R
ENCODING 82
SWIDTH 695 0
DWIDTH 16 0
BBX 13 14 1 0
BITMAP
FF80
2040
2020
2020
2020
2020
2020
2040
3F80
2100
2080
2040
2020
F8F8
ENDCHAR
STARTCHAR S
ENCODING 83
SWIDTH 521 0
DWIDTH 12 0
BBX 10 14 1 0
BITMAP
3F40
40C0
8040
8040
8000
4000
3F00
0080
0040
8040
8040
C040
A080
9F00
ENDCHAR
STARTCHAR T
ENCODING 84
SWIDTH 521 0
DWIDTH 12 0
BBX 10 14 1 0
BITMAP
FFC0
8840
8840
0800
0800
0800
0800
0800
0800
0800
0800
0800
0800
3E00
ENDCHAR
STARTCHAR U
ENCODING 85
SWIDTH 695 0
DWIDTH 16 0
BBX 14 14 1 0
BITMAP
F87C
2010
2010
2010
2010
2010
2010
2010
2010
2010
2010
1020
0840
0780
ENDCHAR
STARTCHAR V
ENCODING 86
SWIDTH 695 0
DWIDTH 16 0
BBX 15 14 0 0
BITMAP
F83E
2008
2008
1010
1010
0820
0820
0440
0440
0280
0280
0100
0100
0100
ENDCHAR
STARTCHAR W
ENCODING 87
SWIDTH 869 0
DWIDTH 20 0
BBX 19 14 0 0
BITMAP
F803E0
200080
200080
104100
104100
104100
08A200
08A200
08A200
051400
051400
051400
020800
020800
ENDCHAR
STARTCHAR X
ENCODING 88
SWIDTH 695 0
DWIDTH 16 0
BBX 15 14 0 0
BITMAP
F01E
2008
1010
0820
0440
0280
0100
0100
0280
0440
0820
1010
2008
F01E
ENDCHAR
STARTCHAR Y
ENCODING 89
SWIDTH 695 0
DWIDTH 16 0
BBX 15 14 0 0
BITMAP
F83E
2008
1010
0820
0440
0280
0100
0100
0100
0100
0100
0100
0100
07C0
ENDCHAR
STARTCHAR Z
ENCODING 90
SWIDTH 521 0
DWIDTH 12 0
BBX 10 14 1 0
BITMAP
FFC0
8040
8080
0100
0200
0200
0400
0800
1000
2000
2000
4040
8040
FFC0
ENDCHAR
STARTCHAR bracketleft
ENCODING 91
SWIDTH 347 0
DWIDTH 8 0
BBX 4 16 2 -1
BITMAP
F0
80
80
80
80
80
80
80
80
80
80
80
80
80
80
F0
ENDCHAR
STARTCHAR backslash
ENCODING 92
SWIDTH 521 0
DWIDTH 12 0
BBX 7 14 2 0
BITMAP
80
80
40
40
20
20
10
10
08
08
04
04
02
02
ENDCHAR
STARTCHAR bracketright
ENCODING 93
SWIDTH 347 0
DWIDTH 8 0
BBX 4 16 2 -1
BITMAP
F0
10
10
10
10
10
10
10
10
10
10
10
10
10
10
F0
ENDCHAR
STARTCHAR asciicircum
ENCODING 94
SWIDTH 434 0
DWIDTH 10 0
BBX 5 3 2 12
BITMAP
20
50
88
ENDCHAR
STARTCHAR underscore
ENCODING 95
SWIDTH 521 0
DWIDTH 12 0
BBX 12 1 0 0
BITMAP
FFF0
ENDCHAR
STARTCHAR grave
ENCODING 96
SWIDTH 260 0
DWIDTH 6 0
BBX 3 3 1 12
BITMAP
80
40
20
ENDCHAR
STARTCHAR a
ENCODING 97
SWIDTH 608 0
DWIDTH 14 0
BBX 12 10 1 0
BITMAP
1FC0
2040
4040
8040
8040
8040
8040
40C0
2140
1E70
ENDCHAR
STARTCHAR b
ENCODING 98
SWIDTH 608 0
DWIDTH 14 0
BBX 12 14 1 0
BITMAP
E000
2000
2000
2000
2780
2840
3020
2010
2010
2010
2010
3020
2840
E780
ENDCHAR
STARTCHAR c
ENCODING 99
SWIDTH 521 0
DWIDTH 12 0
BBX 10 10 1 0
BITMAP
1F00
2080
4040
8000
8000
8000
8000
4040
2080
1F00
ENDCHAR
STARTCHAR d
ENCODING 100
SWIDTH 608 0
DWIDTH 14 0
BBX 12 14 1 0
BITMAP
00C0
0040
0040
0040
1E40
2140
40C0
8040
8040
8040
8040
40C0
2140
1E70
ENDCHAR
STARTCHAR e
ENCODING 101
SWIDTH 521 0
DWIDTH 12 0
BBX 10 10 1 0
BITMAP
1E00
2100
4080
8040
FFC0
8000
8000
4080
2100
1E00
ENDCHAR
STARTCHAR f
ENCODING 102
SWIDTH 347 0
DWIDTH 8 0
BBX 7 14 0 0
BITMAP
0E
10
20
20
78
20
20
20
20
20
20
20
20
F8
ENDCHAR
STARTCHAR g
ENCODING 103
SWIDTH 608 0
DWIDTH 14 0
BBX 12 14 1 -4
BITMAP
1E70
2140
40C0
8040
8040
8040
8040
40C0
2140
1E40
0040
0080
2100
1E00
ENDCHAR
STARTCHAR h
ENCODING 104
SWIDTH 695 0
DWIDTH 16 0
BBX 14 14 1 0
BITMAP
E000
2000
2000
2000
27C0
2820
3010
2010
2010
2010
2010
2010
2010
F83C
ENDCHAR
STARTCHAR i
ENCODING 105
SWIDTH 347 0
DWIDTH 8 0
BBX 5 13 1 0
BITMAP
20
00
00
E0
20
20
20
20
20
20
20
20
F8
ENDCHAR
STARTCHAR j
ENCODING 106
SWIDTH 434 0
DWIDTH 10 0
BBX 7 17 0 -4
BITMAP
02
00
00
0E
02
02
02
02
02
02
02
02
02
02
02
84
78
ENDCHAR
STARTCHAR k
ENCODING 107
SWIDTH 608 0
DWIDTH 14 0
BBX 11 14 1 0
BITMAP
C000
4000
4000
4000
4780
4400
4800
5000
6800
4400
4200
4100
4080
F1E0
ENDCHAR
STARTCHAR l
ENCODING 108
SWIDTH 347 0
DWIDTH 8 0
BBX 5 14 1 0
BITMAP
E0
20
20
20
20
20
20
20
20
20
20
20
20
F8
ENDCHAR
STARTCHAR m
ENCODING 109
SWIDTH 1043 0
DWIDTH 24 0
BBX 21 10 1 0
BITMAP
E70700
288880
305040
202020
202020
202020
202020
202020
202020
F8F8F8
ENDCHAR
STARTCHAR n
ENCODING 110
SWIDTH 695 0
DWIDTH 16 0
BBX 14 10 1 0
BITMAP
E780
2840
3020
2010
2010
2010
2010
2010
2010
F87C
ENDCHAR
STARTCHAR o
ENCODING 111
SWIDTH 521 0
DWIDTH 12 0
BBX 10 10 1 0
BITMAP
1E00
2100
4080
8040
8040
8040
8040
4080
2100
1E00
ENDCHAR
STARTCHAR p
ENCODING 112
SWIDTH 608 0
DWIDTH 14 0
BBX 12 15 1 -5
BITMAP
E780
2840
3020
2010
2010
2010
2010
3020
2840
2780
2000
2000
2000
2000
F800
ENDCHAR
STARTCHAR q
ENCODING 113
SWIDTH 608 0
DWIDTH 14 0
BBX 12 15 1 -5
BITMAP
1E40
2140
40C0
8040
8040
8040
8040
40C0
2140
1E40
0040
0040
0040
0040
01F0
ENDCHAR
STARTCHAR r
ENCODING 114
SWIDTH 521 0
DWIDTH 12 0
BBX 11 10 0 0
BITMAP
E780
2840
3020
2000
2000
2000
2000
2000
2000
F800
ENDCHAR
STARTCHAR s
ENCODING 115
SWIDTH 521 0
DWIDTH 12 0
BBX 9 10 1 0
BITMAP
3E80
4180
8080
4000
3E00
0100
8080
8080
C100
BE00
ENDCHAR
STARTCHAR t
ENCODING 116
SWIDTH 434 0
DWIDTH 10 0
BBX 8 14 1 0
BITMAP
E0
20
20
20
FC
20
20
20
20
20
20
20
11
0E
ENDCHAR
STARTCHAR u
ENCODING 117
SWIDTH 608 0
DWIDTH 14 0
BBX 13 10 0 0
BITMAP
E0E0
2020
2020
2020
2020
2020
2020
2060
10A0
0F38
ENDCHAR
STARTCHAR v
ENCODING 118
SWIDTH 608 0
DWIDTH 14 0
BBX 13 10 0 0
BITMAP
F8F8
2020
1040
1040
0880
0880
0500
0500
0200
0200
ENDCHAR
STARTCHAR w
ENCODING 119
SWIDTH 869 0
DWIDTH 20 0
BBX 19 10 0 0
BITMAP
F803E0
200080
104100
104100
08A200
08A200
051400
051400
020800
020800
ENDCHAR
STARTCHAR x
ENCODING 120
SWIDTH 521 0
DWIDTH 12 0
BBX 11 10 0 0
BITMAP
FBE0
2080
1100
0A00
0400
0400
0A00
1100
2080
FBE0
ENDCHAR
STARTCHAR y
ENCODING 121
SWIDTH 608 0
DWIDTH 14 0
BBX 13 14 0 -4
BITMAP
F8F8
2020
2020
2020
2020
2020
2020
2060
10A0
0F20
0020
0020
1040
0F80
ENDCHAR
STARTCHAR z
ENCODING 122
SWIDTH 521 0
DWIDTH 12 0
BBX 10 10 1 0
BITMAP
FFC0
8080
8100
0200
0400
0800
1000
2040
4040
FFC0
ENDCHAR
STARTCHAR braceleft
ENCODING 123
SWIDTH 347 0
DWIDTH 8 0
BBX 5 17 1 -2
BITMAP
18
20
40
40
40
40
40
40
80
40
40
40
40
40
40
20
18
ENDCHAR
STARTCHAR bar
ENCODING 124
SWIDTH 260 0
DWIDTH 6 0
BBX 1 17 2 -2
BITMAP
80
80
80
80
80
80
80
80
80
80
80
80
80
80
80
80
80
ENDCHAR
STARTCHAR braceright
ENCODING 125
SWIDTH 347 0
DWIDTH 8 0
BBX 5 17 2 -2
BITMAP
C0
20
10
10
10
10
10
10
08
10
10
10
10
10
10
20
C0
ENDCHAR
STARTCHAR asciitilde
ENCODING 126
SWIDTH 521 0
DWIDTH 12 0
BBX 8 2 2 11
BITMAP
71
8E
ENDCHAR
STARTCHAR uni007F
ENCODING 127
SWIDTH 0 0
DWIDTH 0 0
BBX 1 1 0 -5
BITMAP
00
ENDCHAR
STARTCHAR Adieresis
ENCODING 128
SWIDTH 695 0
DWIDTH 16 0
BBX 15 17 0 0
BITMAP
0440
0000
0000
0100
0100
0280
0280
0440
0440
0820
0820
1FF0
1010
1010
2008
2008
F83E
ENDCHAR
STARTCHAR Aring
ENCODING 129
SWIDTH 695 0
DWIDTH 16 0
BBX 15 18 0 0
BITMAP
0380
0440
0440
0380
0100
0100
0280
0280
0440
0440
0820
0820
1FF0
1010
1010
2008
2008
F83E
ENDCHAR
STARTCHAR Ccedilla
ENCODING 130
SWIDTH 608 0
DWIDTH 14 0
BBX 11 18 1 -4
BITMAP
0F00
30C0
4020
4020
8000
8000
8000
8000
8000
8000
4000
4020
30C0
0F00
0200
0100
0100
0200
ENDCHAR
STARTCHAR Eacute
ENCODING 131
SWIDTH 521 0
DWIDTH 12 0
BBX 10 18 1 0
BITMAP
0200
0400
0800
0000
FFC0
2040
2040
2000
2000
2200
3E00
2200
2000
2000
2000
2040
2040
FFC0
ENDCHAR
STARTCHAR Ntilde
ENCODING 132
SWIDTH 695 0
DWIDTH 16 0
BBX 15 18 0 0
BITMAP
0E20
11C0
0000
0000
E7C0
2820
3010
2008
2008
2008
2008
2008
2008
2008
2008
2008
2008
F83E
ENDCHAR
STARTCHAR Odieresis
ENCODING 133
SWIDTH 608 0
DWIDTH 14 0
BBX 12 17 1 0
BITMAP
1080
0000
0000
0F00
30C0
4020
4020
8010
8010
8010
8010
8010
8010
4020
4020
30C0
0F00
ENDCHAR
STARTCHAR Udieresis
ENCODING 134
SWIDTH 695 0
DWIDTH 16 0
BBX 14 17 1 0
BITMAP
0840
0000
0000
F87C
2010
2010
2010
2010
2010
2010
2010
2010
2010
2010
1020
0840
0780
ENDCHAR
STARTCHAR aacute
ENCODING 135
SWIDTH 608 0
DWIDTH 14 0
BBX 12 15 1 0
BITMAP
0100
0200
0400
0000
0000
1FC0
2040
4040
8040
8040
8040
8040
40C0
2140
1E70
ENDCHAR
STARTCHAR agrave
ENCODING 136
SWIDTH 608 0
DWIDTH 14 0
BBX 12 15 1 0
BITMAP
0800
0400
0200
0000
0000
1FC0
2040
4040
8040
8040
8040
8040
40C0
2140
1E70
ENDCHAR
STARTCHAR acircumflex
ENCODING 137
SWIDTH 608 0
DWIDTH 14 0
BBX 12 15 1 0
BITMAP
0400
0A00
1100
0000
0000
1FC0
2040
4040
8040
8040
8040
8040
40C0
2140
1E70
ENDCHAR
STARTCHAR adieresis
ENCODING 138
SWIDTH 608 0
DWIDTH 14 0
BBX 12 13 1 0
BITMAP
0880
0000
0000
1FC0
2040
4040
8040
8040
8040
8040
40C0
2140
1E70
ENDCHAR
STARTCHAR atilde
ENCODING 139
SWIDTH 608 0
DWIDTH 14 0
BBX 12 14 1 0
BITMAP
0C80
1300
0000
0000
1FC0
2040
4040
8040
8040
8040
8040
40C0
2140
1E70
ENDCHAR
STARTCHAR aring
ENCODING 140
SWIDTH 608 0
DWIDTH 14 0
BBX 12 16 1 0
BITMAP
0C00
1200
1200
0C00
0000
0000
1FC0
2040
4040
8040
8040
8040
8040
40C0
2140
1E70
ENDCHAR
STARTCHAR ccedilla
ENCODING 141
SWIDTH 521 0
DWIDTH 12 0
BBX 10 14 1 -4
BITMAP
1F00
2080
4040
8000
8000
8000
8000
4040
2080
1F00
0400
0200
0200
0400
ENDCHAR
STARTCHAR eacute
ENCODING 142
SWIDTH 521 0
DWIDTH 12 0
BBX 10 15 1 0
BITMAP
0200
0400
0800
0000
0000
1E00
2100
4080
8040
FFC0
8000
8000
4080
2100
1E00
ENDCHAR
STARTCHAR egrave
ENCODING 143
SWIDTH 521 0
DWIDTH 12 0
BBX 10 15 1 0
BITMAP
1000
0800
0400
0000
0000
1E00
2100
4080
8040
FFC0
8000
8000
4080
2100
1E00
ENDCHAR
STARTCHAR ecircumflex
ENCODING 144
SWIDTH 521 0
DWIDTH 12 0
BBX 10 15 1 0
BITMAP
0400
0A00
1100
0000
0000
1E00
2100
4080
8040
FFC0
8000
8000
4080
2100
1E00
ENDCHAR
STARTCHAR edieresis
ENCODING 145
SWIDTH 521 0
DWIDTH 12 0
BBX 10 13 1 0
BITMAP
1200
0000
0000
1E00
2100
4080
8040
FFC0
8000
8000
4080
2100
1E00
ENDCHAR
STARTCHAR iacute
ENCODING 146
SWIDTH 347 0
DWIDTH 8 0
BBX 5 15 1 0
BITMAP
10
20
40
00
00
E0
20
20
20
20
20
20
20
20
F8
ENDCHAR
STARTCHAR igrave
ENCODING 147
SWIDTH 347 0
DWIDTH 8 0
BBX 5 15 1 0
BITMAP
80
40
20
00
00
E0
20
20
20
20
20
20
20
20
F8
ENDCHAR
STARTCHAR icircumflex
ENCODING 148
SWIDTH 347 0
DWIDTH 8 0
BBX 5 15 1 0
BITMAP
20
50
88
00
00
70
10
10
10
10
10
10
10
10
78
ENDCHAR
STARTCHAR idieresis
ENCODING 149
SWIDTH 347 0
DWIDTH 8 0
BBX 5 13 1 0
BITMAP
88
00
00
E0
20
20
20
20
20
20
20
20
F8
ENDCHAR
STARTCHAR ntilde
ENCODING 150
SWIDTH 695 0
DWIDTH 16 0
BBX 14 14 1 0
BITMAP
0640
0980
0000
0000
E7C0
2820
3010
2010
2010
2010
2010
2010
2010
F87C
ENDCHAR
STARTCHAR oacute
ENCODING 151
SWIDTH 521 0
DWIDTH 12 0
BBX 10 15 1 0
BITMAP
0200
0400
0800
0000
0000
1E00
2100
4080
8040
8040
8040
8040
4080
2100
1E00
ENDCHAR
STARTCHAR ograve
ENCODING 152
SWIDTH 521 0
DWIDTH 12 0
BBX 10 15 1 0
BITMAP
1000
0800
0400
0000
0000
1E00
2100
4080
8040
8040
8040
8040
4080
2100
1E00
ENDCHAR
STARTCHAR ocircumflex
ENCODING 153
SWIDTH 521 0
DWIDTH 12 0
BBX 10 15 1 0
BITMAP
0400
0A00
1100
0000
0000
1E00
2100
4080
8040
8040
8040
8040
4080
2100
1E00
ENDCHAR
STARTCHAR odieresis
ENCODING 154
SWIDTH 521 0
DWIDTH 12 0
BBX 10 13 1 0
BITMAP
1200
0000
0000
1E00
2100
4080
8040
8040
8040
8040
4080
2100
1E00
ENDCHAR
STARTCHAR otilde
ENCODING 155
SWIDTH 521 0
DWIDTH 12 0
BBX 10 14 1 0
BITMAP
1900
2600
0000
0000
1E00
2100
4080
8040
8040
8040
8040
4080
2100
1E00
ENDCHAR
STARTCHAR uacute
ENCODING 156
SWIDTH 608 0
DWIDTH 14 0
BBX 13 15 0 0
BITMAP
0100
0200
0400
0000
0000
E0E0
2020
2020
2020
2020
2020
2020
2060
10A0
0F38
ENDCHAR
STARTCHAR ugrave
ENCODING 157
SWIDTH 608 0
DWIDTH 14 0
BBX 13 15 0 0
BITMAP
0800
0400
0200
0000
0000
E0E0
2020
2020
2020
2020
2020
2020
2060
10A0
0F38
ENDCHAR
STARTCHAR ucircumflex
ENCODING 158
SWIDTH 608 0
DWIDTH 14 0
BBX 13 15 0 0
BITMAP
0200
0500
0880
0000
0000
E0E0
2020
2020
2020
2020
2020
2020
2060
10A0
0F38
ENDCHAR
STARTCHAR udieresis
ENCODING 159
SWIDTH 608 0
DWIDTH 14 0
BBX 13 13 0 0
BITMAP
0880
0000
0000
E060
2020
2020
2020
2020
2020
2020
2060
10A0
0F38
ENDCHAR
STARTCHAR dagger
ENCODING 160
SWIDTH 347 0
DWIDTH 8 0
BBX 5 8 1 7
BITMAP
20
20
F8
20
20
20
20
20
ENDCHAR
STARTCHAR degree
ENCODING 161
SWIDTH 434 0
DWIDTH 10 0
BBX 4 4 2 9
BITMAP
60
90
90
60
ENDCHAR
STARTCHAR cent
ENCODING 162
SWIDTH 521 0
DWIDTH 12 0
BBX 10 14 1 -1
BITMAP
0400
0400
1F00
2480
4440
8400
8400
8400
8400
4440
2480
1F00
0400
0400
ENDCHAR
STARTCHAR sterling
ENCODING 163
SWIDTH 521 0
DWIDTH 12 0
BBX 10 14 1 0
BITMAP
1E00
2100
4000
4000
4000
4000
F000
4000
4000
4000
4040
4040
4080
FF00
ENDCHAR
STARTCHAR section
ENCODING 164
SWIDTH 434 0
DWIDTH 10 0
BBX 8 17 1 -2
BITMAP
3C
42
81
81
80
60
98
86
81
61
19
06
01
81
81
42
3C
ENDCHAR
STARTCHAR bullet
ENCODING 165
SWIDTH 521 0
DWIDTH 12 0
BBX 9 9 1 2
BITMAP
1C00
7F00
7F00
FF80
FF80
FF80
7F00
7F00
1C00
ENDCHAR
STARTCHAR paragraph
ENCODING 166
SWIDTH 608 0
DWIDTH 14 0
BBX 12 14 1 0
BITMAP
3F70
4140
8140
8140
8140
8140
8140
4140
3F40
0140
0140
0140
0140
0770
ENDCHAR
STARTCHAR germandbls
ENCODING 167
SWIDTH 608 0
DWIDTH 14 0
BBX 12 14 1 0
BITMAP
0F80
1040
2020
2020
2020
2040
21C0
2020
2010
2010
2010
2010
2020
E7C0
ENDCHAR
STARTCHAR registered
ENCODING 168
SWIDTH 695 0
DWIDTH 16 0
BBX 11 11 2 0
BITMAP
1F00
2080
4040
9E20
9120
9E20
9220
9120
4040
2080
1F00
ENDCHAR
STARTCHAR copyright
ENCODING 169
SWIDTH 695 0
DWIDTH 16 0
BBX 11 11 2 0
BITMAP
1F00
2080
4040
8E20
9120
9020
9120
8E20
4040
2080
1F00
ENDCHAR
STARTCHAR trademark
ENCODING 170
SWIDTH 782 0
DWIDTH 18 0
BBX 12 5 2 9
BITMAP
F410
4630
4550
4490
4410
ENDCHAR
STARTCHAR acute
ENCODING 171
SWIDTH 260 0
DWIDTH 6 0
BBX 3 3 1 11
BITMAP
20
40
80
ENDCHAR
STARTCHAR dieresis
ENCODING 172
SWIDTH 347 0
DWIDTH 8 0
BBX 5 1 1 13
BITMAP
88
ENDCHAR
STARTCHAR AE
ENCODING 174
SWIDTH 869 0
DWIDTH 20 0
BBX 17 14 1 0
BITMAP
01FF80
018080
028080
028000
048000
048400
0FFC00
088400
088000
108000
108000
208080
208080
F9FF80
ENDCHAR
STARTCHAR Oslash
ENCODING 175
SWIDTH 608 0
DWIDTH 14 0
BBX 12 14 1 0
BITMAP
0F00
30D0
4020
4060
8090
8110
8110
8210
8410
8410
4820
5020
30C0
4F00
ENDCHAR
STARTCHAR yen
ENCODING 180
SWIDTH 521 0
DWIDTH 12 0
BBX 11 14 0 0
BITMAP
8020
4040
2080
1100
7BC0
0400
0400
7FC0
0400
0400
0400
0400
0400
0400
ENDCHAR
STARTCHAR ordfeminine
ENCODING 187
SWIDTH 521 0
DWIDTH 12 0
BBX 8 9 1 5
BITMAP
3E
42
82
82
82
46
3B
00
FF
ENDCHAR
STARTCHAR ordmasculine
ENCODING 188
SWIDTH 521 0
DWIDTH 12 0
BBX 7 9 1 5
BITMAP
38
44
82
82
82
44
38
00
FE
ENDCHAR
STARTCHAR ae
ENCODING 190
SWIDTH 956 0
DWIDTH 22 0
BBX 19 10 1 0
BITMAP
1FCF00
205080
406040
804020
807FE0
804000
804000
40E040
215080
1E4F00
ENDCHAR
STARTCHAR oslash
ENCODING 191
SWIDTH 521 0
DWIDTH 12 0
BBX 10 10 1 0
BITMAP
1E00
2140
4080
8140
8240
8440
8840
5080
2100
5E00
ENDCHAR
STARTCHAR questiondown
ENCODING 192
SWIDTH 608 0
DWIDTH 14 0
BBX 9 14 3 0
BITMAP
0800
0800
0000
0000
0800
0800
1000
2000
4000
8000
8080
8080
4100
3E00
ENDCHAR
STARTCHAR exclamdown
ENCODING 193
SWIDTH 347 0
DWIDTH 8 0
BBX 1 14 3 0
BITMAP
80
80
00
00
80
80
80
80
80
80
80
80
80
80
ENDCHAR
STARTCHAR guillemotleft
ENCODING 199
SWIDTH 608 0
DWIDTH 14 0
BBX 9 9 1 0
BITMAP
0880
1100
2200
4400
8800
4400
2200
1100
0880
ENDCHAR
STARTCHAR guillemotright
ENCODING 200
SWIDTH 608 0
DWIDTH 14 0
BBX 9 9 4 0
BITMAP
8800
4400
2200
1100
0880
1100
2200
4400
8800
ENDCHAR
STARTCHAR ellipsis
ENCODING 201
SWIDTH 608 0
DWIDTH 14 0
BBX 11 2 2 0
BITMAP
8420
8420
ENDCHAR
STARTCHAR Agrave
ENCODING 203
SWIDTH 695 0
DWIDTH 16 0
BBX 15 18 0 0
BITMAP
0200
0100
0080
0000
0100
0100
0280
0280
0440
0440
0820
0820
1FF0
1010
1010
2008
2008
F83E
ENDCHAR
STARTCHAR Atilde
ENCODING 204
SWIDTH 695 0
DWIDTH 16 0
BBX 15 18 0 0
BITMAP
0320
04C0
0000
0000
0100
0100
0280
0280
0440
0440
0820
0820
1FF0
1010
1010
2008
2008
F83E
ENDCHAR
STARTCHAR Otilde
ENCODING 205
SWIDTH 608 0
DWIDTH 14 0
BBX 12 18 1 0
BITMAP
0C80
1300
0000
0000
0F00
30C0
4020
4020
8010
8010
8010
8010
8010
8010
4020
4020
30C0
0F00
ENDCHAR
STARTCHAR OE
ENCODING 206
SWIDTH 869 0
DWIDTH 20 0
BBX 18 14 1 0
BITMAP
0E7FC0
31C040
404040
404000
804000
804400
807C00
804400
804000
804000
404000
404040
31C040
0E7FC0
ENDCHAR
STARTCHAR oe
ENCODING 207
SWIDTH 956 0
DWIDTH 22 0
BBX 19 10 1 0
BITMAP
1E0F00
211080
40A040
804020
807FE0
804000
804000
40A040
211080
1E0F00
ENDCHAR
STARTCHAR endash
ENCODING 208
SWIDTH 434 0
DWIDTH 10 0
BBX 8 1 1 6
BITMAP
FF
ENDCHAR
STARTCHAR emdash
ENCODING 209
SWIDTH 521 0
DWIDTH 12 0
BBX 11 1 0 6
BITMAP
FFE0
ENDCHAR
STARTCHAR quotedblleft
ENCODING 210
SWIDTH 521 0
DWIDTH 12 0
BBX 6 4 2 9
BITMAP
44
88
88
CC
ENDCHAR
STARTCHAR quotedblright
ENCODING 211
SWIDTH 434 0
DWIDTH 10 0
BBX 6 4 2 9
BITMAP
CC
44
44
88
ENDCHAR
STARTCHAR quoteleft
ENCODING 212
SWIDTH 260 0
DWIDTH 6 0
BBX 2 4 2 9
BITMAP
40
80
80
C0
ENDCHAR
STARTCHAR quoteright
ENCODING 213
SWIDTH 260 0
DWIDTH 6 0
BBX 2 4 2 9
BITMAP
C0
40
40
80
ENDCHAR
STARTCHAR lozenge
ENCODING 215
SWIDTH 782 0
DWIDTH 18 0
BBX 13 13 2 0
BITMAP
0200
0500
0880
1040
2020
4010
8008
4010
2020
1040
0880
0500
0200
ENDCHAR
STARTCHAR ydieresis
ENCODING 216
SWIDTH 608 0
DWIDTH 14 0
BBX 13 17 0 -4
BITMAP
1080
0000
0000
F8F8
2020
2020
2020
2020
2020
2020
2060
10A0
0F20
0020
0020
1040
0F80
ENDCHAR
STARTCHAR Ydieresis
ENCODING 217
SWIDTH 391 0
DWIDTH 9 0
BBX 9 15 0 0
BITMAP
0800
1400
2200
4100
8080
C180
A380
9780
8F80
8F80
8F80
4F00
2E00
1C00
0800
ENDCHAR
ENDFONT
